<svg xmlns="http://www.w3.org/2000/svg" width="700" height="178" viewBox="0 0 700 178" role="img" aria-label="대표 프로젝트의 언어 분포">
<style>
  .panel { fill: #f6f8fa; stroke: #d0d7de; }
  .title { fill: #1f2328; font: 600 18px -apple-system, BlinkMacSystemFont, 'Segoe UI', sans-serif; }
  .subtitle, .percent { fill: #656d76; font: 12px -apple-system, BlinkMacSystemFont, 'Segoe UI', sans-serif; }
  .label { fill: #1f2328; font: 600 13px -apple-system, BlinkMacSystemFont, 'Segoe UI', sans-serif; }
  @media (prefers-color-scheme: dark) {
    .panel { fill: #161b22; stroke: #30363d; }
    .title, .label { fill: #e6edf3; }
    .subtitle, .percent { fill: #8b949e; }
  }
</style>
<rect class="panel" x="0.5" y="0.5" width="699" height="177" rx="8"/>
<text x="24" y="34" class="title">언어 사용 비율</text>
<text x="24" y="53" class="subtitle">자동 선정된 저장소 기준</text>
<clipPath id="bar"><rect x="24" y="70" width="652" height="14" rx="7"/></clipPath>
<g clip-path="url(#bar)"><rect x="24.00" y="70" width="148.18" height="14" fill="#7C5CFC"/><rect x="172.18" y="70" width="118.55" height="14" fill="#22C55E"/><rect x="290.73" y="70" width="88.91" height="14" fill="#38BDF8"/><rect x="379.64" y="70" width="59.27" height="14" fill="#F59E0B"/><rect x="438.91" y="70" width="59.27" height="14" fill="#F43F5E"/><rect x="498.18" y="70" width="29.64" height="14" fill="#A78BFA"/></g><g><circle cx="28" cy="114" r="5" fill="#7C5CFC"/><text x="41" y="119" class="label">Python</text><text x="218" y="119" text-anchor="end" class="percent">23%</text><circle cx="246" cy="114" r="5" fill="#22C55E"/><text x="259" y="119" class="label">HTML</text><text x="436" y="119" text-anchor="end" class="percent">18%</text><circle cx="464" cy="114" r="5" fill="#38BDF8"/><text x="477" y="119" class="label">JavaScript</text><text x="654" y="119" text-anchor="end" class="percent">14%</text><circle cx="28" cy="142" r="5" fill="#F59E0B"/><text x="41" y="147" class="label">CSS</text><text x="218" y="147" text-anchor="end" class="percent">9%</text><circle cx="246" cy="142" r="5" fill="#F43F5E"/><text x="259" y="147" class="label">Dockerfile</text><text x="436" y="147" text-anchor="end" class="percent">9%</text><circle cx="464" cy="142" r="5" fill="#A78BFA"/><text x="477" y="147" class="label">PowerShell</text><text x="654" y="147" text-anchor="end" class="percent">5%</text></g></svg>