<svg xmlns="http://www.w3.org/2000/svg" width="900" height="400" viewBox="0 0 900 400" role="img" aria-label="Commit dinosaur for hongseongug812-ui">
<style>
 .panel{fill:#fff;stroke:#d0d7de} .title{fill:#1f2328;font:800 24px ui-monospace,SFMono-Regular,Menlo,monospace} .text{fill:#656d76;font:14px -apple-system,BlinkMacSystemFont,'Segoe UI',sans-serif} .strong{fill:#1f2328;font:700 14px -apple-system,BlinkMacSystemFont,'Segoe UI',sans-serif}
 @media(prefers-color-scheme:dark){.panel{fill:#0d1117;stroke:#30363d}.title,.strong{fill:#f0f6fc}.text{fill:#8b949e}}
</style>
<rect class="panel" x=".5" y=".5" width="899" height="399" rx="8"/>
<text x="34" y="48" class="title">hongseongug812-ui's commit dinosaur</text>
<text x="34" y="76" class="text">A new dinosaur is summoned for every 100 commits</text>
<ellipse cx="450" cy="350" rx="108" ry="16" fill="#8c959f" opacity=".18"/>
<g><animateTransform attributeName="transform" type="translate" values="0 0;0 -6;0 0" dur="2.8s" repeatCount="indefinite"/><path d="M352 169Q337 102 402 84L450 112L498 84Q564 103 548 169Z" fill="#ff91a4" stroke="#7446a8" stroke-width="7"/><path d="M380 126L355 78L407 111M520 126L545 78L493 111M450 117V69" fill="#d6a6ff" stroke="#7446a8" stroke-width="7" stroke-linecap="round"/>
<path d="M548 251Q642 242 620 313Q603 348 547 309" fill="#d6a6ff" stroke="#7446a8" stroke-width="7"/>
<path d="M450 112C372 112 326 164 326 240C326 315 376 348 450 348C524 348 574 315 574 240C574 164 528 112 450 112Z" fill="#d6a6ff" stroke="#7446a8" stroke-width="7"/>
<ellipse cx="400" cy="201" rx="29" ry="37" fill="#172b27"/><ellipse cx="491" cy="201" rx="29" ry="37" fill="#172b27"/>
<ellipse cx="391" cy="188" rx="11" ry="14" fill="#fff"/><ellipse cx="482" cy="188" rx="11" ry="14" fill="#fff"/>
<circle cx="411" cy="218" r="5" fill="#fff"/><circle cx="502" cy="218" r="5" fill="#fff"/>
<ellipse cx="366" cy="252" rx="24" ry="12" fill="#ff91a4" opacity=".72"/><ellipse cx="526" cy="252" rx="24" ry="12" fill="#ff91a4" opacity=".72"/>
<path d="M426 247Q449 270 474 247" fill="#fff" stroke="#172b27" stroke-width="6" stroke-linecap="round"/>
<circle cx="438" cy="237" r="4" fill="#7446a8"/><circle cx="462" cy="237" r="4" fill="#7446a8"/>
<path d="M347 268Q310 279 321 307Q331 323 357 298M553 268Q586 279 575 307Q565 323 541 298" fill="#d6a6ff" stroke="#7446a8" stroke-width="7" stroke-linecap="round"/>
<ellipse cx="401" cy="342" rx="37" ry="15" fill="#7446a8" opacity=".55"/><ellipse cx="499" cy="342" rx="37" ry="15" fill="#7446a8" opacity=".55"/>
<path d="M365 159Q400 127 435 142" fill="none" stroke="#fff" stroke-width="10" stroke-linecap="round" opacity=".38"/></g>
<g transform="translate(635 215)"><text class="strong" y="0">Berry Tricera</text><text class="text" y="28">224 commits</text><text class="text" y="52">3 dinos collected</text><text class="text" y="76">76 commits to next</text>
<rect y="94" width="220" height="10" rx="5" fill="#d8dee4"/><rect y="94" width="52.8" height="10" rx="5" fill="#ff91a4"/><text class="text" y="128">COLLECTION</text><circle cx="8" cy="148" r="6" fill="#7ddde3" stroke="#247b82" stroke-width="2"/><circle cx="28" cy="148" r="6" fill="#ffb59e" stroke="#a84f39" stroke-width="2"/><circle cx="48" cy="148" r="6" fill="#d6a6ff" stroke="#7446a8" stroke-width="2"/></g>
</svg>